<svg width="24" height="24" viewBox="0 0 24 24" fill="none" xmlns="http://www.w3.org/2000/svg">
<path fill-rule="evenodd" clip-rule="evenodd" d="M12 3C10.9391 3 9.92172 3.42143 9.17157 4.17157C8.42143 4.92172 8 5.93913 8 7V18H7V7C7 5.67392 7.52678 4.40215 8.46447 3.46447C9.40215 2.52678 10.6739 2 12 2C13.3261 2 14.5979 2.52678 15.5355 3.46447C16.4732 4.40215 17 5.67392 17 7V18C17 19.0609 16.5786 20.0783 15.8284 20.8284C15.0783 21.5786 14.0609 22 13 22C11.9391 22 10.9217 21.5786 10.1716 20.8284C9.42143 20.0783 9 19.0609 9 18L9 9C9 8.20435 9.31607 7.44129 9.87868 6.87868C10.4413 6.31607 11.2044 6 12 6C12.7956 6 13.5587 6.31607 14.1213 6.87868C14.6839 7.44129 15 8.20435 15 9V17H14L14 9C14 8.46957 13.7893 7.96086 13.4142 7.58579C13.0391 7.21071 12.5304 7 12 7C11.4696 7 10.9609 7.21071 10.5858 7.58579C10.2107 7.96086 10 8.46957 10 9L10 18C10 18.7957 10.3161 19.5587 10.8787 20.1213C11.4413 20.6839 12.2044 21 13 21C13.7956 21 14.5587 20.6839 15.1213 20.1213C15.6839 19.5587 16 18.7957 16 18V7C16 5.93913 15.5786 4.92172 14.8284 4.17157C14.0783 3.42143 13.0609 3 12 3Z" fill="#7E8CA3"/>
</svg>
