<svg width="16" height="16" viewBox="0 0 16 16" fill="none" xmlns="http://www.w3.org/2000/svg">
<path d="M14 12.6667V9.33333H12.6667V12.6667H3.33333V3.33333H6.66667V2H3.33333C2.97971 2 2.64057 2.14048 2.39052 2.39052C2.14048 2.64057 2 2.97971 2 3.33333V12.6667C2 13.0203 2.14048 13.3594 2.39052 13.6095C2.64057 13.8595 2.97971 14 3.33333 14H12.6667C13.0203 14 13.3594 13.8595 13.6095 13.6095C13.8595 13.3594 14 13.0203 14 12.6667Z" fill="#0F7AC7"/>
<path d="M11.3333 4.66667H14V6H11.3333V8.66667H10V6H7.33333V4.66667H10V2H11.3333V4.66667Z" fill="#0F7AC7"/>
</svg>
