<svg width="16" height="16" viewBox="0 0 16 16" fill="none" xmlns="http://www.w3.org/2000/svg">
<path d="M8 6L11 4V12L8 10H7.5V6H8Z" fill="#292A31"/>
<path d="M11.5 9V7H12.5C12.7761 7 13 7.22386 13 7.5V8.5C13 8.77614 12.7761 9 12.5 9H11.5Z" fill="#292A31"/>
<path d="M7 6H4.5C4.22386 6 4 6.22386 4 6.5V9.5C4 9.77614 4.22386 10 4.5 10H5.2584L6.1704 12.1524L7.09116 11.7623L6.34446 10H7V6Z" fill="#292A31"/>
<path fill-rule="evenodd" clip-rule="evenodd" d="M15 8C15 11.866 11.866 15 8 15C4.13401 15 1 11.866 1 8C1 4.13401 4.13401 1 8 1C11.866 1 15 4.13401 15 8ZM14 8C14 11.3137 11.3137 14 8 14C4.68629 14 2 11.3137 2 8C2 4.68629 4.68629 2 8 2C11.3137 2 14 4.68629 14 8Z" fill="#292A31"/>
</svg>
