<svg width="18" height="18" viewBox="0 0 18 18" fill="none" xmlns="http://www.w3.org/2000/svg">
<path d="M9.7077 4.28129L12.2813 1.7077C12.6782 1.31077 13.3218 1.31077 13.7187 1.7077L16.2923 4.28129C16.6892 4.67822 16.6892 5.32178 16.2923 5.71871L13.7187 8.2923C13.7025 8.30854 13.6858 8.32411 13.6688 8.33901L12.158 9.84984C13.019 10.1677 14.0242 9.98089 14.7157 9.28932L17.2893 6.71573C18.2369 5.76816 18.2369 4.23184 17.2893 3.28427L14.7157 0.710678C13.7682 -0.236893 12.2318 -0.236893 11.2843 0.710678L8.71068 3.28427C8.0195 3.97545 7.83248 4.97986 8.14962 5.84055L9.67885 4.31132C9.68822 4.30116 9.69784 4.29115 9.7077 4.28129Z" fill="#7E8CA3"/>
<path d="M5.83973 8.14932C4.97922 7.8326 3.97523 8.01972 3.28427 8.71068L0.710678 11.2843C-0.236893 12.2318 -0.236893 13.7682 0.710678 14.7157L3.28427 17.2893C4.23184 18.2369 5.76816 18.2369 6.71573 17.2893L9.28932 14.7157C9.98077 14.0243 10.1677 13.0194 9.85001 12.1584L8.33425 13.6742C8.3208 13.6894 8.30681 13.7042 8.2923 13.7187L5.71871 16.2923C5.32178 16.6892 4.67822 16.6892 4.28129 16.2923L1.7077 13.7187C1.31077 13.3218 1.31077 12.6782 1.7077 12.2813L4.28129 9.7077L4.28772 9.70133L5.83973 8.14932Z" fill="#7E8CA3"/>
<path d="M12.0091 5.99088C11.4619 5.44363 10.5746 5.44363 10.0273 5.99088L5.99088 10.0273C5.44363 10.5746 5.44363 11.4619 5.99088 12.0091C6.53814 12.5564 7.42541 12.5564 7.97266 12.0091L12.0091 7.97266C12.5564 7.42541 12.5564 6.53814 12.0091 5.99088Z" fill="#7E8CA3"/>
</svg>
