<svg width="16" height="16" viewBox="0 0 16 16" fill="none" xmlns="http://www.w3.org/2000/svg">
<path fill-rule="evenodd" clip-rule="evenodd" d="M8 14C11.3137 14 14 11.3137 14 8C14 4.68629 11.3137 2 8 2C4.68629 2 2 4.68629 2 8C2 11.3137 4.68629 14 8 14ZM7.27584 9.28816C7.31322 9.31931 7.35682 9.33488 7.40666 9.33488H8.7148C8.78332 9.33488 8.83627 9.3162 8.87365 9.27882C8.91103 9.24144 8.95463 9.17915 9.00446 9.09194C9.02938 8.97982 9.05118 8.89572 9.06987 8.83966C9.11971 8.70261 9.19134 8.5718 9.28478 8.44721C9.38445 8.32263 9.51838 8.17001 9.68657 7.98936C9.96066 7.69036 10.1662 7.42561 10.3033 7.19513C10.4465 6.96465 10.5182 6.69679 10.5182 6.39155C10.5182 6.1237 10.4403 5.86207 10.2846 5.60667C10.1351 5.34504 9.88279 5.12701 9.52772 4.95259C9.17265 4.77195 8.71169 4.68162 8.14483 4.68162C7.59042 4.68162 7.11388 4.77817 6.71521 4.97128C6.31653 5.16439 6.01442 5.41667 5.80885 5.72814C5.60328 6.03337 5.49427 6.35729 5.48181 6.6999C5.48181 6.77465 5.5005 6.83695 5.53788 6.88678C5.58148 6.93039 5.63754 6.95219 5.70607 6.95219H6.84602C6.9893 6.95219 7.08585 6.87744 7.13568 6.72794C7.24781 6.26074 7.54682 6.02714 8.0327 6.02714C8.23826 6.02714 8.41268 6.08632 8.55596 6.20468C8.70546 6.3168 8.77087 6.46942 8.75218 6.66253C8.74595 6.79334 8.693 6.92416 8.59333 7.05497C8.49366 7.17956 8.34416 7.34152 8.14483 7.54085C7.87697 7.80248 7.66517 8.03608 7.50944 8.24165C7.35994 8.44721 7.26338 8.68081 7.21978 8.94244V9.15735C7.21978 9.20718 7.23847 9.25079 7.27584 9.28816ZM7.25715 11.2504C7.30076 11.294 7.35682 11.3158 7.42534 11.3158H8.62136C8.68989 11.3158 8.74595 11.294 8.78955 11.2504C8.83939 11.2068 8.86431 11.1507 8.86431 11.0822V10.017C8.86431 9.94847 8.83939 9.8924 8.78955 9.8488C8.74595 9.80519 8.68989 9.78339 8.62136 9.78339H7.42534C7.35682 9.78339 7.30076 9.80519 7.25715 9.8488C7.21355 9.8924 7.19175 9.94847 7.19175 10.017V11.0822C7.19175 11.1507 7.21355 11.2068 7.25715 11.2504Z" fill="#292A31"/>
</svg>
