<svg width="24" height="24" viewBox="0 0 24 24" fill="none" xmlns="http://www.w3.org/2000/svg">
<path fill-rule="evenodd" clip-rule="evenodd" d="M19.6182 17.7091L15.7981 13.8882C16.9518 12.0983 17.1425 9.85262 16.3063 7.89365C15.4701 5.93545 13.7165 4.51947 11.6253 4.11641C9.53476 3.71247 7.38039 4.37393 5.87536 5.88081C4.37107 7.38691 3.71196 9.54253 4.11735 11.6335C4.52345 13.7246 5.93992 15.4769 7.89916 16.3118C9.85829 17.146 12.1036 16.953 13.8916 15.7968L17.7102 19.6177C18.2229 20.1274 19.0508 20.1274 19.5643 19.6177L19.6183 19.5636V19.5644C20.1272 19.0508 20.1272 18.2227 19.6183 17.7091L19.6182 17.7091ZM13.863 13.8649C12.9472 14.7809 11.705 15.296 10.41 15.296C9.11511 15.296 7.87282 14.7817 6.95696 13.8657C6.0411 12.9497 5.52623 11.7072 5.52623 10.4119C5.52623 9.11664 6.04117 7.87422 6.95696 6.95816C7.87274 6.0421 9.11497 5.52788 10.41 5.52788C11.7048 5.52788 12.9471 6.04293 13.863 6.95891C14.778 7.87489 15.2922 9.11681 15.2922 10.4119C15.2922 11.707 14.778 12.9488 13.863 13.8649V13.8649Z" fill="#546480"/>
</svg>
