<svg width="16" height="16" viewBox="0 0 16 16" fill="none" xmlns="http://www.w3.org/2000/svg">
<path fill-rule="evenodd" clip-rule="evenodd" d="M13.36 16H2.64C2.28654 16 2 15.7135 2 15.36V0.64C2 0.286538 2.28654 0 2.64 0H10.4016C10.5713 0 10.7341 0.0674284 10.8541 0.187452L13.8125 3.14588C13.9326 3.2659 14 3.42869 14 3.59843V15.36C14 15.7135 13.7135 16 13.36 16ZM10.2166 1.09657L12.9034 3.78343C12.9538 3.83383 12.9181 3.92 12.8469 3.92H10.16C10.1158 3.92 10.08 3.88418 10.08 3.84V1.15314C10.08 1.08187 10.1662 1.04617 10.2166 1.09657ZM7.84 4.24C7.84 5.32129 7.07385 6.22364 6.0548 6.4338L5.64327 5.67933C5.94377 5.67184 6.18235 5.60212 6.35902 5.47017C6.54634 5.33028 6.64 5.13777 6.64 4.89263C6.64 4.58589 6.4865 4.34525 6.17951 4.17071C6.05333 4.09884 5.89203 4.0321 5.69561 3.97049C5.49919 3.90761 5.36195 3.84728 5.2839 3.78953C5.20585 3.73049 5.16683 3.66504 5.16683 3.59317C5.16683 3.51103 5.20195 3.44365 5.27219 3.39103C5.34374 3.33712 5.44065 3.31017 5.56293 3.31017C5.6839 3.31017 5.77951 3.34162 5.84976 3.4045C5.9213 3.46739 5.95707 3.55595 5.95707 3.67017H6.64C6.64 3.49948 6.59512 3.34803 6.50537 3.21584C6.41561 3.08236 6.28943 2.97969 6.12683 2.90782C5.98268 2.84359 5.82139 2.80806 5.64297 2.80123L6.0548 2.0462C7.07385 2.25637 7.84 3.15871 7.84 4.24ZM3.36 4.24C3.36 5.32129 4.12615 6.22364 5.1452 6.4338L5.5565 5.67975C5.33879 5.67619 5.14061 5.63585 4.96195 5.55873C4.77593 5.47659 4.63545 5.36493 4.54049 5.22375C4.44683 5.0813 4.4 4.91766 4.4 4.73285H5.08683C5.08683 4.88301 5.12585 4.99402 5.2039 5.06589C5.28325 5.13648 5.41138 5.17178 5.58829 5.17178C5.70146 5.17178 5.79057 5.14803 5.85561 5.10055C5.92195 5.05178 5.95512 4.98376 5.95512 4.89648C5.95512 4.79766 5.91935 4.72065 5.8478 4.66547C5.77756 4.61028 5.65333 4.55317 5.47512 4.49413C5.29691 4.43509 5.15122 4.37798 5.03805 4.32279C4.66992 4.1444 4.48585 3.89926 4.48585 3.58739C4.48585 3.4321 4.53138 3.29541 4.62244 3.17734C4.7148 3.05798 4.84488 2.96557 5.01268 2.90012C5.17456 2.83574 5.35582 2.80241 5.55644 2.80014L5.1452 2.0462C4.12615 2.25637 3.36 3.15871 3.36 4.24ZM3.36 8.24C3.36 8.15163 3.43164 8.08 3.52 8.08H12.88C12.9684 8.08 13.04 8.15163 13.04 8.24V8.88C13.04 8.96836 12.9684 9.04 12.88 9.04H3.52C3.43163 9.04 3.36 8.96836 3.36 8.88V8.24ZM3.36 9.84C3.36 9.75163 3.43164 9.68 3.52 9.68H12.88C12.9684 9.68 13.04 9.75163 13.04 9.84V10.48C13.04 10.5684 12.9684 10.64 12.88 10.64H3.52C3.43163 10.64 3.36 10.5684 3.36 10.48V9.84ZM3.52 11.28C3.43164 11.28 3.36 11.3516 3.36 11.44V12.08C3.36 12.1684 3.43163 12.24 3.52 12.24H12.88C12.9684 12.24 13.04 12.1684 13.04 12.08V11.44C13.04 11.3516 12.9684 11.28 12.88 11.28H3.52ZM3.36 13.04C3.36 12.9516 3.43164 12.88 3.52 12.88H7.68C7.76837 12.88 7.84 12.9516 7.84 13.04V13.68C7.84 13.7684 7.76837 13.84 7.68 13.84H3.52C3.43164 13.84 3.36 13.7684 3.36 13.68V13.04Z" fill="#292A31"/>
</svg>
