<svg width="14" height="14" viewBox="0 0 14 14" fill="none" xmlns="http://www.w3.org/2000/svg">
<path d="M7 5L10 3V11L7 9H6.5V5H7Z" fill="#292A31"/>
<path d="M10.5 8V6H11.5C11.7761 6 12 6.22386 12 6.5V7.5C12 7.77614 11.7761 8 11.5 8H10.5Z" fill="#292A31"/>
<path d="M6 5H3.5C3.22386 5 3 5.22386 3 5.5V8.5C3 8.77614 3.22386 9 3.5 9H4.2584L5.1704 11.1524L6.09116 10.7623L5.34446 9H6V5Z" fill="#292A31"/>
<path fill-rule="evenodd" clip-rule="evenodd" d="M14 7C14 10.866 10.866 14 7 14C3.13401 14 0 10.866 0 7C0 3.13401 3.13401 0 7 0C10.866 0 14 3.13401 14 7ZM13 7C13 10.3137 10.3137 13 7 13C3.68629 13 1 10.3137 1 7C1 3.68629 3.68629 1 7 1C10.3137 1 13 3.68629 13 7Z" fill="#292A31"/>
</svg>
